<svg xmlns="http://www.w3.org/2000/svg" version="1.1" xmlns:xlink="http://www.w3.org/1999/xlink" xmlns:svgjs="http://svgjs.com/svgjs" width="1980" height="1080" preserveAspectRatio="none" viewBox="0 0 1980 1080"><g mask="url(&quot;#SvgjsMask2977&quot;)" fill="none"><rect width="1980" height="1080" x="0" y="0" fill="rgba(238, 192, 171, 1)"></rect><use xlink:href="#SvgjsG2987" transform="translate(0, 0)" fill="rgba(143, 89, 76, 1)"></use><use xlink:href="#SvgjsG2987" transform="translate(0, 806.0000000000001)" fill="rgba(143, 89, 76, 1)"></use><use xlink:href="#SvgjsG2987" transform="translate(806.0000000000001, 0)" fill="rgba(143, 89, 76, 1)"></use><use xlink:href="#SvgjsG2987" transform="translate(806.0000000000001, 806.0000000000001)" fill="rgba(143, 89, 76, 1)"></use><use xlink:href="#SvgjsG2987" transform="translate(1612.0000000000002, 0)" fill="rgba(143, 89, 76, 1)"></use><use xlink:href="#SvgjsG2987" transform="translate(1612.0000000000002, 806.0000000000001)" fill="rgba(143, 89, 76, 1)"></use></g><defs><mask id="SvgjsMask2977"><rect width="1980" height="1080" fill="#ffffff"></rect></mask><g id="SvgjsG2978"><path d="M10.91 11.43c-0.74-0.39-1.66-0.11-2.06 0.63a1.52 1.52 0 0 0 0.63 2.05c0.74 0.39 1.66 0.11 2.05-0.63 0.39-0.74 0.11-1.66-0.62-2.05z m-1.06 1.98a0.73 0.73 0 0 1 0.68-1.28 0.73 0.73 0 0 1 0.3 0.98 0.73 0.73 0 0 1-0.98 0.3zM3.23 7.33c-0.74-0.39-1.66-0.11-2.05 0.63a1.52 1.52 0 0 0 0.63 2.06c0.74 0.39 1.66 0.11 2.05-0.63 0.39-0.74 0.11-1.66-0.63-2.06z m-1.05 1.99a0.73 0.73 0 0 1 0.68-1.28 0.73 0.73 0 0 1-0.68 1.28z" fill-rule="evenodd"></path><path d="M14.47 10.15c0.36 0.29 0.51 0.59 0.16 1.68l-0.66 1.94c-0.21 0.64-0.65 0.67-1.06 0.45L11.93 13.7c0.51-0.96 0.15-2.16-0.81-2.67-0.96-0.51-2.16-0.14-2.67 0.82L4.25 9.61c0.51-0.96 0.15-2.16-0.81-2.67-0.96-0.51-2.16-0.14-2.67 0.82L-0.05 7.33C-0.34 7.18-0.44 6.84-0.29 6.56L2.82 0.69C2.99 0.37 3.38 0.25 3.69 0.42l10.55 5.6c0.4 0.21 0.59 0.57 0.54 0.99l-0.31 3.14zM12.3 5.76l-1.3 2.44L13.82 9.69l0.31-2.96L12.3 5.76z" fill-rule="evenodd"></path></g><g id="SvgjsG2984"><path d="M9.47 6.85L4.02-0.49l0.37-0.69L10 6.44l-0.53 0.41zM4.95 9.34l3.19 1.69-1.51 2.85a0.95 0.95 0 0 0 1.69 0.9L9.83 11.93c0.25 0.13 0.37-0.02 0.47-0.21L11.43 9.6l-1.98-2.73-5.66-3.01-0.52-0.81a0.55 0.55 0 0 0-0.76-0.17c-0.26 0.16-0.33 0.5-0.17 0.77l0.8 1.27-2.94 5.54a0.95 0.95 0 0 0 1.69 0.9L3.03 9.19l0.16 3.39a0.96 0.96 0 0 0 1 0.91 0.97 0.97 0 0 0 0.91-1.01l-0.15-3.15z m5.07-2.91l1.8 2.42 0.24-0.45 1.95 1.04 1.54-1.16L11.76 3.16l-1.74 3.27z" fill-rule="evenodd"></path></g><g id="SvgjsG2982"><path d="M0.28 11.43l-1.04-0.55C-1.49 10.49-1.9 9.59-1.41 8.66c0 0 3.51-6.6 3.51-6.61 0.44-0.82 1.45-1.08 2.19-0.68l1.05 0.55-5.06 9.51z m11.63-6L12.63 4.07c0.27-0.49 0-1.04-0.53-1.32 0 0-2.03-1.08-2.03-1.08-0.53-0.29-1.14-0.21-1.4 0.29l-0.73 1.37L6.04 2.31l-5.06 9.51 7.79 4.15L13.83 6.45l-1.92-1.02z m-0.72-0.38L8.64 3.7l0.75-1.41 2.55 1.36-0.75 1.4z m-1.71 11.27l1.04 0.56c0.72 0.38 1.7 0.22 2.19-0.7 0 0 3.51-6.6 3.52-6.62 0.44-0.82 0.09-1.8-0.65-2.19l-1.04-0.56-5.06 9.51z"></path></g><g id="SvgjsG2985"><path d="M1.53 5.51c1.44-0.57 3.44-0.44 4.7 0.52 1.16-1.82 1.89-3.7 3.76-4.95C6.96-0.29 3.21 3.47 1.53 5.51M13.69 7.71c1.01-0.41 2.66 0 3.07 1.09C16.24 4.95 14.73 1.86 10.59 1.18c2.3 2.29 2.86 5.87 3.1 6.53"></path><path d="M13.08 7.53C12.84 5.68 10.96 1.95 10.22 1.73c-0.78-0.23-3.11 3.67-3.5 4.56 0.84-0.56 1.8-0.82 2.74-0.79l-1.37 9.95 0.48 0.11 1.37-10.02c1.22 0.17 2.38 0.82 3.14 1.99"></path></g><g id="SvgjsG2980"><path d="M10.6 6.11c1.12 0.6 1.77 1.74 1.83 2.94l3.17 1.69 0.91-1.72c0.34-0.64 0.1-1.43-0.53-1.77L4.15 0.96C3.52 0.62 2.73 0.87 2.39 1.51l-0.9 1.71 5.66 3.01c1.03-0.62 2.32-0.72 3.45-0.12M6.27 1.38l-1.06-0.56-0.32 0.32 1.26 0.67 0.12-0.43zM15.87 6.22l-1.41-0.74L13.9 5.94 15.78 6.94l0.09-0.72zM10.85 4.05l-1.21-0.64L9.96 2.82l1.2 0.64-0.31 0.59zM12.39 3.81l-3.4-1.81-1.26 0.67 4.75 2.52L12.39 3.81z m0.04 5.63c-0.03 0.48-0.16 0.97-0.4 1.43-0.92 1.72-3.04 2.38-4.74 1.48-1.7-0.91-2.34-3.04-1.43-4.76 0.24-0.46 0.57-0.83 0.96-1.13L1.32 3.53-1.18 8.23c-0.34 0.64-0.11 1.43 0.53 1.76l11.83 6.29c0.63 0.34 1.42 0.09 1.76-0.54L15.44 11.04 12.43 9.44z"></path><path d="M11.17 9.1a1.72 1.72 0 0 0-0.05-0.34c-0.13-0.63-0.51-1.2-1.11-1.52-0.61-0.32-1.3-0.32-1.9-0.08-0.11 0.04-0.21 0.09-0.31 0.15-0.34 0.2-0.64 0.49-0.83 0.87-0.58 1.1-0.18 2.46 0.91 3.04 1.09 0.58 2.45 0.15 3.03-0.94 0.2-0.38 0.28-0.78 0.26-1.18"></path></g><g id="SvgjsG2979"><path d="M11.6 1.53C9.21 0.28 7.98 0.31 5.85 0.18l-0.05 0.4C8.46 1.05 9.15 1.63 11.02 2.63l0.31 1.18-5.45 10.14a0.88 0.88 0 0 0 0.83 1.24 0.9 0.9 0 0 0 0.74-0.46L12.81 4.83l2.47 1.4 1.13-2.08L11.6 1.53" fill-rule="evenodd"></path></g><g id="SvgjsG2981"><path d="M10.53 13.59c1.18 0.63 2.65 0.18 3.28-1.01 0.63-1.19 0.18-2.66-1-3.28-1.19-0.63-2.65-0.18-3.29 1-0.63 1.18-0.18 2.65 1.01 3.29m-8.55-4.55c1.18 0.63 2.65 0.18 3.28-1 0.63-1.19 0.18-2.66-1-3.29-1.18-0.63-2.65-0.18-3.29 1.01-0.63 1.18-0.18 2.65 1.01 3.28M10.13 7.9L6.92 6.2l-1.13 2.13L8.99 10.04 10.13 7.9zM13.45 6.76l-7.41-3.94-0.74 1.38 7.42 3.94L13.45 6.76z m0.12 1.84L16.04 9.91l-3.09 5.83L-1.18 8.23l3.1-5.83 2.53 1.34 0.67-1.25c0.25-0.47 0.83-0.65 1.3-0.4L13.84 6.03c0.47 0.25 0.65 0.83 0.39 1.31l-0.66 1.26z"></path></g><g id="SvgjsG2983"><path d="M7.56 4.44s0.38-0.21 0.21-0.48L5.95 3s-0.37 0-0.33 0.65l1.95 0.79zM10.94 7.34s0.02 0.17-0.11 0.2l-3.25 0.56 0.07 0.53L10.87 8.09s0.08-0.05 0.11 0.16l0.14-0.23-0.18-0.68z"></path><path d="M9.48 4.82s-0.1-0.04-0.05-0.12L9.59 4.4s0.08-0.06 0.13-0.01l2.14 1.13s0.5 0.28-0.05 0.54c0 0-0.37 0.07-0.4 0.46L11.52 11.19l-0.46 0.02-0.15-3.85s0.06-0.03-0.21-0.17l-3.73-1.98 0.03 2.41-0.55 0.03L6.35 4.97s-0.02-0.07-0.08-0.03l-2.2 1.7s-0.06 0.05 0.04 0.11l2.02 1.09-0.17 0.44L3.42 6.93s-0.3-0.16-0.03-0.4l2.91-2.31s0.02 0.01 0.03-0.06l-0.02-0.29 0.6 0.23 0 0.22s-0.02 0.09 0.07 0.13l3.73 1.98s0.13 0.1 0.22-0.07c0.09-0.17 0-0.27 0.28-0.48 0 0 0.1-0.07 0-0.13L9.47 4.83"></path><path d="M4.46 4.94a2.06 2.06 0 0 0-1.94 3.64 2.06 2.06 0 0 0 1.94-3.64zM12.27 9.09a2.06 2.06 0 1 0 0.86 2.8 2.06 2.06 0 0 0-0.86-2.8z"></path><path d="M7.07 7.89a0.69 0.69 0 1 0-0.64 1.22 0.69 0.69 0 0 0 0.64-1.22z"></path></g><g id="SvgjsG2986"><path d="M13.46 7.65L14.4 5.88 14.24 5.8c-0.49-0.26-1.09-0.07-1.35 0.42-0.26 0.49-0.08 1.09 0.4 1.35l0.17 0.08z m-1.11-1.1L12.4 4.59C12.4 4.18 12.19 3.79 11.8 3.59l-1.78-0.95C9.86 2.55 9.65 2.62 9.56 2.79c-0.09 0.17-0.03 0.37 0.14 0.46l1.78 0.95c0.14 0.08 0.25 0.26 0.24 0.43l-0.04 1.25 0.67 0.67z m2.65 3.53c0.2 0.19 0.25 0.5 0.12 0.76l-1.3-0.69c-1.7-0.91-3.83-0.24-4.75 1.48L4.85 9.39c0.74-1.39 0.47-3.03-0.54-4.1L2.39 3.28l0.71-0.39a0.87 0.87 0 0 1 0.82-0.01c0.06 0.03 0.11 0.07 0.16 0.11l4.31 4.37a0.77 0.77 0 0 0 0.18 0.14c0.23 0.12 0.5 0.11 0.72 0l2.1-1.1 3.61 3.68z"></path><path d="M10.98 14.36c0.44 0.23 0.98 0.06 1.21-0.37 0.24-0.44 0.07-0.98-0.36-1.22-0.43-0.23-0.97-0.06-1.21 0.38-0.23 0.44-0.07 0.98 0.36 1.21M9.3 12.45c0.63-1.18 2.07-1.63 3.23-1.01C13.69 12.06 14.13 13.51 13.51 14.69c-0.62 1.18-2.08 1.63-3.24 1.01-1.16-0.62-1.6-2.07-0.97-3.25m-7.94-3.39c0.48 0.25 1.07 0.07 1.32-0.42 0.26-0.48 0.08-1.08-0.39-1.33-0.48-0.26-1.07-0.07-1.34 0.41-0.26 0.48-0.08 1.08 0.41 1.34M-0.5 6.95c0.69-1.29 2.28-1.79 3.56-1.11 1.28 0.68 1.76 2.28 1.07 3.57-0.69 1.29-2.28 1.79-3.56 1.11C-0.71 9.84-1.19 8.24-0.5 6.95"></path></g><g id="SvgjsG2987"><use xlink:href="#SvgjsG2978" transform="translate(0, 0) scale(2.6)" fill="rgba(143, 89, 76, 1)"></use><use xlink:href="#SvgjsG2979" transform="translate(0, 80.60000000000001) scale(2.6)" fill="rgba(143, 89, 76, 1)"></use><use xlink:href="#SvgjsG2979" transform="translate(0, 161.20000000000002) scale(2.6)" fill="rgba(143, 89, 76, 1)"></use><use xlink:href="#SvgjsG2980" transform="translate(0, 241.8) scale(2.6)" fill="rgba(143, 89, 76, 1)"></use><use xlink:href="#SvgjsG2981" transform="translate(0, 322.40000000000003) scale(2.6)" fill="rgba(143, 89, 76, 1)"></use><use xlink:href="#SvgjsG2978" transform="translate(0, 403.00000000000006) scale(2.6)" fill="rgba(143, 89, 76, 1)"></use><use xlink:href="#SvgjsG2980" transform="translate(0, 483.6) scale(2.6)" fill="rgba(143, 89, 76, 1)"></use><use xlink:href="#SvgjsG2982" transform="translate(0, 564.2) scale(2.6)" fill="rgba(143, 89, 76, 1)"></use><use xlink:href="#SvgjsG2983" transform="translate(0, 644.8000000000001) scale(2.6)" fill="rgba(143, 89, 76, 1)"></use><use xlink:href="#SvgjsG2980" transform="translate(0, 725.4000000000001) scale(2.6)" fill="rgba(143, 89, 76, 1)"></use><use xlink:href="#SvgjsG2984" transform="translate(80.60000000000001, 0) scale(2.6)" fill="rgba(143, 89, 76, 1)"></use><use xlink:href="#SvgjsG2980" transform="translate(80.60000000000001, 80.60000000000001) scale(2.6)" fill="rgba(143, 89, 76, 1)"></use><use xlink:href="#SvgjsG2985" transform="translate(80.60000000000001, 161.20000000000002) scale(2.6)" fill="rgba(143, 89, 76, 1)"></use><use xlink:href="#SvgjsG2980" transform="translate(80.60000000000001, 241.8) scale(2.6)" fill="rgba(143, 89, 76, 1)"></use><use xlink:href="#SvgjsG2986" transform="translate(80.60000000000001, 322.40000000000003) scale(2.6)" fill="rgba(143, 89, 76, 1)"></use><use xlink:href="#SvgjsG2986" transform="translate(80.60000000000001, 403.00000000000006) scale(2.6)" fill="rgba(143, 89, 76, 1)"></use><use xlink:href="#SvgjsG2980" transform="translate(80.60000000000001, 483.6) scale(2.6)" fill="rgba(143, 89, 76, 1)"></use><use xlink:href="#SvgjsG2978" transform="translate(80.60000000000001, 564.2) scale(2.6)" fill="rgba(143, 89, 76, 1)"></use><use xlink:href="#SvgjsG2986" transform="translate(80.60000000000001, 644.8000000000001) scale(2.6)" fill="rgba(143, 89, 76, 1)"></use><use xlink:href="#SvgjsG2978" transform="translate(80.60000000000001, 725.4000000000001) scale(2.6)" fill="rgba(143, 89, 76, 1)"></use><use xlink:href="#SvgjsG2982" transform="translate(161.20000000000002, 0) scale(2.6)" fill="rgba(143, 89, 76, 1)"></use><use xlink:href="#SvgjsG2985" transform="translate(161.20000000000002, 80.60000000000001) scale(2.6)" fill="rgba(143, 89, 76, 1)"></use><use xlink:href="#SvgjsG2984" transform="translate(161.20000000000002, 161.20000000000002) scale(2.6)" fill="rgba(143, 89, 76, 1)"></use><use xlink:href="#SvgjsG2983" transform="translate(161.20000000000002, 241.8) scale(2.6)" fill="rgba(143, 89, 76, 1)"></use><use xlink:href="#SvgjsG2978" transform="translate(161.20000000000002, 322.40000000000003) scale(2.6)" fill="rgba(143, 89, 76, 1)"></use><use xlink:href="#SvgjsG2980" transform="translate(161.20000000000002, 403.00000000000006) scale(2.6)" fill="rgba(143, 89, 76, 1)"></use><use xlink:href="#SvgjsG2980" transform="translate(161.20000000000002, 483.6) scale(2.6)" fill="rgba(143, 89, 76, 1)"></use><use xlink:href="#SvgjsG2978" transform="translate(161.20000000000002, 564.2) scale(2.6)" fill="rgba(143, 89, 76, 1)"></use><use xlink:href="#SvgjsG2978" transform="translate(161.20000000000002, 644.8000000000001) scale(2.6)" fill="rgba(143, 89, 76, 1)"></use><use xlink:href="#SvgjsG2983" transform="translate(161.20000000000002, 725.4000000000001) scale(2.6)" fill="rgba(143, 89, 76, 1)"></use><use xlink:href="#SvgjsG2981" transform="translate(241.8, 0) scale(2.6)" fill="rgba(143, 89, 76, 1)"></use><use xlink:href="#SvgjsG2978" transform="translate(241.8, 80.60000000000001) scale(2.6)" fill="rgba(143, 89, 76, 1)"></use><use xlink:href="#SvgjsG2980" transform="translate(241.8, 161.20000000000002) scale(2.6)" fill="rgba(143, 89, 76, 1)"></use><use xlink:href="#SvgjsG2980" transform="translate(241.8, 241.8) scale(2.6)" fill="rgba(143, 89, 76, 1)"></use><use xlink:href="#SvgjsG2985" transform="translate(241.8, 322.40000000000003) scale(2.6)" fill="rgba(143, 89, 76, 1)"></use><use xlink:href="#SvgjsG2982" transform="translate(241.8, 403.00000000000006) scale(2.6)" fill="rgba(143, 89, 76, 1)"></use><use xlink:href="#SvgjsG2981" transform="translate(241.8, 483.6) scale(2.6)" fill="rgba(143, 89, 76, 1)"></use><use xlink:href="#SvgjsG2978" transform="translate(241.8, 564.2) scale(2.6)" fill="rgba(143, 89, 76, 1)"></use><use xlink:href="#SvgjsG2979" transform="translate(241.8, 644.8000000000001) scale(2.6)" fill="rgba(143, 89, 76, 1)"></use><use xlink:href="#SvgjsG2982" transform="translate(241.8, 725.4000000000001) scale(2.6)" fill="rgba(143, 89, 76, 1)"></use><use xlink:href="#SvgjsG2986" transform="translate(322.40000000000003, 0) scale(2.6)" fill="rgba(143, 89, 76, 1)"></use><use xlink:href="#SvgjsG2984" transform="translate(322.40000000000003, 80.60000000000001) scale(2.6)" fill="rgba(143, 89, 76, 1)"></use><use xlink:href="#SvgjsG2978" transform="translate(322.40000000000003, 161.20000000000002) scale(2.6)" fill="rgba(143, 89, 76, 1)"></use><use xlink:href="#SvgjsG2981" transform="translate(322.40000000000003, 241.8) scale(2.6)" fill="rgba(143, 89, 76, 1)"></use><use xlink:href="#SvgjsG2979" transform="translate(322.40000000000003, 322.40000000000003) scale(2.6)" fill="rgba(143, 89, 76, 1)"></use><use xlink:href="#SvgjsG2984" transform="translate(322.40000000000003, 403.00000000000006) scale(2.6)" fill="rgba(143, 89, 76, 1)"></use><use xlink:href="#SvgjsG2985" transform="translate(322.40000000000003, 483.6) scale(2.6)" fill="rgba(143, 89, 76, 1)"></use><use xlink:href="#SvgjsG2985" transform="translate(322.40000000000003, 564.2) scale(2.6)" fill="rgba(143, 89, 76, 1)"></use><use xlink:href="#SvgjsG2980" transform="translate(322.40000000000003, 644.8000000000001) scale(2.6)" fill="rgba(143, 89, 76, 1)"></use><use xlink:href="#SvgjsG2983" transform="translate(322.40000000000003, 725.4000000000001) scale(2.6)" fill="rgba(143, 89, 76, 1)"></use><use xlink:href="#SvgjsG2980" transform="translate(403.00000000000006, 0) scale(2.6)" fill="rgba(143, 89, 76, 1)"></use><use xlink:href="#SvgjsG2983" transform="translate(403.00000000000006, 80.60000000000001) scale(2.6)" fill="rgba(143, 89, 76, 1)"></use><use xlink:href="#SvgjsG2983" transform="translate(403.00000000000006, 161.20000000000002) scale(2.6)" fill="rgba(143, 89, 76, 1)"></use><use xlink:href="#SvgjsG2979" transform="translate(403.00000000000006, 241.8) scale(2.6)" fill="rgba(143, 89, 76, 1)"></use><use xlink:href="#SvgjsG2986" transform="translate(403.00000000000006, 322.40000000000003) scale(2.6)" fill="rgba(143, 89, 76, 1)"></use><use xlink:href="#SvgjsG2982" transform="translate(403.00000000000006, 403.00000000000006) scale(2.6)" fill="rgba(143, 89, 76, 1)"></use><use xlink:href="#SvgjsG2984" transform="translate(403.00000000000006, 483.6) scale(2.6)" fill="rgba(143, 89, 76, 1)"></use><use xlink:href="#SvgjsG2986" transform="translate(403.00000000000006, 564.2) scale(2.6)" fill="rgba(143, 89, 76, 1)"></use><use xlink:href="#SvgjsG2983" transform="translate(403.00000000000006, 644.8000000000001) scale(2.6)" fill="rgba(143, 89, 76, 1)"></use><use xlink:href="#SvgjsG2980" transform="translate(403.00000000000006, 725.4000000000001) scale(2.6)" fill="rgba(143, 89, 76, 1)"></use><use xlink:href="#SvgjsG2981" transform="translate(483.6, 0) scale(2.6)" fill="rgba(143, 89, 76, 1)"></use><use xlink:href="#SvgjsG2982" transform="translate(483.6, 80.60000000000001) scale(2.6)" fill="rgba(143, 89, 76, 1)"></use><use xlink:href="#SvgjsG2978" transform="translate(483.6, 161.20000000000002) scale(2.6)" fill="rgba(143, 89, 76, 1)"></use><use xlink:href="#SvgjsG2982" transform="translate(483.6, 241.8) scale(2.6)" fill="rgba(143, 89, 76, 1)"></use><use xlink:href="#SvgjsG2981" transform="translate(483.6, 322.40000000000003) scale(2.6)" fill="rgba(143, 89, 76, 1)"></use><use xlink:href="#SvgjsG2979" transform="translate(483.6, 403.00000000000006) scale(2.6)" fill="rgba(143, 89, 76, 1)"></use><use xlink:href="#SvgjsG2981" transform="translate(483.6, 483.6) scale(2.6)" fill="rgba(143, 89, 76, 1)"></use><use xlink:href="#SvgjsG2984" transform="translate(483.6, 564.2) scale(2.6)" fill="rgba(143, 89, 76, 1)"></use><use xlink:href="#SvgjsG2982" transform="translate(483.6, 644.8000000000001) scale(2.6)" fill="rgba(143, 89, 76, 1)"></use><use xlink:href="#SvgjsG2986" transform="translate(483.6, 725.4000000000001) scale(2.6)" fill="rgba(143, 89, 76, 1)"></use><use xlink:href="#SvgjsG2979" transform="translate(564.2, 0) scale(2.6)" fill="rgba(143, 89, 76, 1)"></use><use xlink:href="#SvgjsG2986" transform="translate(564.2, 80.60000000000001) scale(2.6)" fill="rgba(143, 89, 76, 1)"></use><use xlink:href="#SvgjsG2986" transform="translate(564.2, 161.20000000000002) scale(2.6)" fill="rgba(143, 89, 76, 1)"></use><use xlink:href="#SvgjsG2984" transform="translate(564.2, 241.8) scale(2.6)" fill="rgba(143, 89, 76, 1)"></use><use xlink:href="#SvgjsG2981" transform="translate(564.2, 322.40000000000003) scale(2.6)" fill="rgba(143, 89, 76, 1)"></use><use xlink:href="#SvgjsG2981" transform="translate(564.2, 403.00000000000006) scale(2.6)" fill="rgba(143, 89, 76, 1)"></use><use xlink:href="#SvgjsG2978" transform="translate(564.2, 483.6) scale(2.6)" fill="rgba(143, 89, 76, 1)"></use><use xlink:href="#SvgjsG2978" transform="translate(564.2, 564.2) scale(2.6)" fill="rgba(143, 89, 76, 1)"></use><use xlink:href="#SvgjsG2983" transform="translate(564.2, 644.8000000000001) scale(2.6)" fill="rgba(143, 89, 76, 1)"></use><use xlink:href="#SvgjsG2979" transform="translate(564.2, 725.4000000000001) scale(2.6)" fill="rgba(143, 89, 76, 1)"></use><use xlink:href="#SvgjsG2979" transform="translate(644.8000000000001, 0) scale(2.6)" fill="rgba(143, 89, 76, 1)"></use><use xlink:href="#SvgjsG2984" transform="translate(644.8000000000001, 80.60000000000001) scale(2.6)" fill="rgba(143, 89, 76, 1)"></use><use xlink:href="#SvgjsG2980" transform="translate(644.8000000000001, 161.20000000000002) scale(2.6)" fill="rgba(143, 89, 76, 1)"></use><use xlink:href="#SvgjsG2979" transform="translate(644.8000000000001, 241.8) scale(2.6)" fill="rgba(143, 89, 76, 1)"></use><use xlink:href="#SvgjsG2981" transform="translate(644.8000000000001, 322.40000000000003) scale(2.6)" fill="rgba(143, 89, 76, 1)"></use><use xlink:href="#SvgjsG2982" transform="translate(644.8000000000001, 403.00000000000006) scale(2.6)" fill="rgba(143, 89, 76, 1)"></use><use xlink:href="#SvgjsG2981" transform="translate(644.8000000000001, 483.6) scale(2.6)" fill="rgba(143, 89, 76, 1)"></use><use xlink:href="#SvgjsG2981" transform="translate(644.8000000000001, 564.2) scale(2.6)" fill="rgba(143, 89, 76, 1)"></use><use xlink:href="#SvgjsG2984" transform="translate(644.8000000000001, 644.8000000000001) scale(2.6)" fill="rgba(143, 89, 76, 1)"></use><use xlink:href="#SvgjsG2984" transform="translate(644.8000000000001, 725.4000000000001) scale(2.6)" fill="rgba(143, 89, 76, 1)"></use><use xlink:href="#SvgjsG2978" transform="translate(725.4000000000001, 0) scale(2.6)" fill="rgba(143, 89, 76, 1)"></use><use xlink:href="#SvgjsG2980" transform="translate(725.4000000000001, 80.60000000000001) scale(2.6)" fill="rgba(143, 89, 76, 1)"></use><use xlink:href="#SvgjsG2981" transform="translate(725.4000000000001, 161.20000000000002) scale(2.6)" fill="rgba(143, 89, 76, 1)"></use><use xlink:href="#SvgjsG2982" transform="translate(725.4000000000001, 241.8) scale(2.6)" fill="rgba(143, 89, 76, 1)"></use><use xlink:href="#SvgjsG2986" transform="translate(725.4000000000001, 322.40000000000003) scale(2.6)" fill="rgba(143, 89, 76, 1)"></use><use xlink:href="#SvgjsG2985" transform="translate(725.4000000000001, 403.00000000000006) scale(2.6)" fill="rgba(143, 89, 76, 1)"></use><use xlink:href="#SvgjsG2981" transform="translate(725.4000000000001, 483.6) scale(2.6)" fill="rgba(143, 89, 76, 1)"></use><use xlink:href="#SvgjsG2979" transform="translate(725.4000000000001, 564.2) scale(2.6)" fill="rgba(143, 89, 76, 1)"></use><use xlink:href="#SvgjsG2978" transform="translate(725.4000000000001, 644.8000000000001) scale(2.6)" fill="rgba(143, 89, 76, 1)"></use><use xlink:href="#SvgjsG2984" transform="translate(725.4000000000001, 725.4000000000001) scale(2.6)" fill="rgba(143, 89, 76, 1)"></use></g></defs></svg>